# xmcd
#
# Track frame offsets:
#	150
#	17996
#	37489
#	61634
#	109463
#	167473
#	177007
#	202899
#	224073
#	254120
#	270403
#	292570
#
# Disc length: 4572 seconds
#
# Revision: 0
# Processed by: cddbd v1.5.2PL0 Copyright (c) Steve Scherf et al.
# Submitted via: EasyCDDAExtractor 16.0.6.1
#
DISCID=b011da0c
DTITLE=SB Fest 2009
DYEAR=1900
DGENRE=
TTITLE0=Sonny and his Wild Cows - Pinetop's Boogie Woogie (Mr. J
TTITLE1=Sonny and his Wild Cows - Let's Talk it Over
TTITLE2=Ana Popovic - Let Me love you baby
TTITLE3=Ana Popovic - How'd you learn to shake it like that
TTITLE4=Lucky Peterson - Medley
TTITLE5=Rag Mama Rag - Can't you line them
TTITLE6=Rag Mama Rag - Diddy Wah Diddy
TTITLE7=Lil' Dave Thompson - Born Under a bad sign
TTITLE8=Lil' Dave Thompson - Hard time killing Floor
TTITLE9=John Primer - Everyday brings by a change
TTITLE10=John Primer - Hoochie Coochie man
TTITLE11=John Primer - Love Song
EXTD=
EXTT0=
EXTT1=
EXTT2=
EXTT3=
EXTT4=
EXTT5=
EXTT6=
EXTT7=
EXTT8=
EXTT9=
EXTT10=
EXTT11=
PLAYORDER=
